<svg width="88" height="20" viewBox="0 0 88 20" fill="none" xmlns="http://www.w3.org/2000/svg">
<path d="M10.696 19L7.456 14.32H7.264H3.88V19H-0.0079999V2.2H7.264C8.752 2.2 10.04 2.448 11.128 2.944C12.232 3.44 13.08 4.144 13.672 5.056C14.264 5.968 14.56 7.048 14.56 8.296C14.56 9.544 14.256 10.624 13.648 11.536C13.056 12.432 12.208 13.12 11.104 13.6L14.872 19H10.696ZM10.624 8.296C10.624 7.352 10.32 6.632 9.712 6.136C9.104 5.624 8.216 5.368 7.048 5.368H3.88V11.224H7.048C8.216 11.224 9.104 10.968 9.712 10.456C10.32 9.944 10.624 9.224 10.624 8.296ZM30.1244 12.592C30.1244 12.64 30.1004 12.976 30.0524 13.6H20.2844C20.4604 14.4 20.8764 15.032 21.5324 15.496C22.1884 15.96 23.0044 16.192 23.9804 16.192C24.6524 16.192 25.2444 16.096 25.7564 15.904C26.2844 15.696 26.7724 15.376 27.2204 14.944L29.2124 17.104C27.9964 18.496 26.2204 19.192 23.8844 19.192C22.4284 19.192 21.1404 18.912 20.0204 18.352C18.9004 17.776 18.0364 16.984 17.4284 15.976C16.8204 14.968 16.5164 13.824 16.5164 12.544C16.5164 11.28 16.8124 10.144 17.4044 9.136C18.0124 8.112 18.8364 7.32 19.8764 6.76C20.9324 6.184 22.1084 5.896 23.4044 5.896C24.6684 5.896 25.8124 6.168 26.8364 6.712C27.8604 7.256 28.6604 8.04 29.2364 9.064C29.8284 10.072 30.1244 11.248 30.1244 12.592ZM23.4284 8.728C22.5804 8.728 21.8684 8.968 21.2924 9.448C20.7164 9.928 20.3644 10.584 20.2364 11.416H26.5964C26.4684 10.6 26.1164 9.952 25.5404 9.472C24.9644 8.976 24.2604 8.728 23.4284 8.728ZM32.7171 1.192H36.4611V19H32.7171V1.192ZM52.8518 6.088L47.4038 19H43.5398L38.1158 6.088H41.9798L45.5558 14.872L49.2518 6.088H52.8518ZM54.4796 6.088H58.2236V19H54.4796V6.088ZM56.3516 4.288C55.6636 4.288 55.1036 4.088 54.6716 3.688C54.2396 3.288 54.0236 2.792 54.0236 2.2C54.0236 1.608 54.2396 1.112 54.6716 0.711999C55.1036 0.311999 55.6636 0.111999 56.3516 0.111999C57.0396 0.111999 57.5996 0.303999 58.0316 0.688C58.4636 1.072 58.6796 1.552 58.6796 2.128C58.6796 2.752 58.4636 3.272 58.0316 3.688C57.5996 4.088 57.0396 4.288 56.3516 4.288ZM66.1423 19.192C65.0703 19.192 64.0223 19.064 62.9983 18.808C61.9743 18.536 61.1583 18.2 60.5503 17.8L61.7983 15.112C62.3743 15.48 63.0703 15.784 63.8863 16.024C64.7023 16.248 65.5023 16.36 66.2863 16.36C67.8703 16.36 68.6623 15.968 68.6623 15.184C68.6623 14.816 68.4463 14.552 68.0143 14.392C67.5823 14.232 66.9183 14.096 66.0223 13.984C64.9663 13.824 64.0943 13.64 63.4063 13.432C62.7183 13.224 62.1183 12.856 61.6063 12.328C61.1103 11.8 60.8623 11.048 60.8623 10.072C60.8623 9.256 61.0943 8.536 61.5583 7.912C62.0383 7.272 62.7263 6.776 63.6223 6.424C64.5343 6.072 65.6063 5.896 66.8383 5.896C67.7503 5.896 68.6543 6 69.5503 6.208C70.4623 6.4 71.2143 6.672 71.8063 7.024L70.5583 9.688C69.4223 9.048 68.1823 8.728 66.8383 8.728C66.0383 8.728 65.4383 8.84 65.0383 9.064C64.6383 9.288 64.4383 9.576 64.4383 9.928C64.4383 10.328 64.6543 10.608 65.0863 10.768C65.5183 10.928 66.2063 11.08 67.1503 11.224C68.2063 11.4 69.0703 11.592 69.7423 11.8C70.4143 11.992 70.9983 12.352 71.4943 12.88C71.9903 13.408 72.2383 14.144 72.2383 15.088C72.2383 15.888 71.9983 16.6 71.5183 17.224C71.0383 17.848 70.3343 18.336 69.4063 18.688C68.4943 19.024 67.4063 19.192 66.1423 19.192ZM87.2963 12.592C87.2963 12.64 87.2723 12.976 87.2243 13.6H77.4563C77.6323 14.4 78.0483 15.032 78.7043 15.496C79.3603 15.96 80.1763 16.192 81.1523 16.192C81.8243 16.192 82.4163 16.096 82.9283 15.904C83.4563 15.696 83.9443 15.376 84.3923 14.944L86.3843 17.104C85.1683 18.496 83.3923 19.192 81.0563 19.192C79.6003 19.192 78.3123 18.912 77.1923 18.352C76.0723 17.776 75.2083 16.984 74.6003 15.976C73.9923 14.968 73.6883 13.824 73.6883 12.544C73.6883 11.28 73.9843 10.144 74.5763 9.136C75.1843 8.112 76.0083 7.32 77.0483 6.76C78.1043 6.184 79.2803 5.896 80.5763 5.896C81.8403 5.896 82.9843 6.168 84.0083 6.712C85.0323 7.256 85.8323 8.04 86.4083 9.064C87.0003 10.072 87.2963 11.248 87.2963 12.592ZM80.6003 8.728C79.7523 8.728 79.0403 8.968 78.4643 9.448C77.8883 9.928 77.5363 10.584 77.4083 11.416H83.7683C83.6403 10.6 83.2883 9.952 82.7123 9.472C82.1363 8.976 81.4323 8.728 80.6003 8.728Z" fill="#252B42"/>
</svg>
